<svg width="36" height="36" viewBox="0 0 36 36" fill="none" xmlns="http://www.w3.org/2000/svg">
<g filter="url(#filter0_b_51_413)">
<rect width="36" height="36" rx="18" fill="white" fill-opacity="0.07"/>
<path d="M15.5199 11.667C15.9399 11.6797 16.3465 11.7531 16.7405 11.8871H16.7799C16.8065 11.8997 16.8265 11.9137 16.8399 11.9264C16.9872 11.9737 17.1265 12.0271 17.2599 12.1004L17.5132 12.2137C17.6132 12.2671 17.7332 12.3664 17.7999 12.4071C17.8665 12.4464 17.9399 12.4871 17.9999 12.5331C18.7405 11.9671 19.6399 11.6604 20.5665 11.667C20.9872 11.667 21.4072 11.7264 21.8065 11.8604C24.2672 12.6604 25.1539 15.3604 24.4132 17.7204C23.9932 18.9264 23.3065 20.0271 22.4072 20.9264C21.1199 22.1731 19.7072 23.2797 18.1865 24.2331L18.0199 24.3337L17.8465 24.2264C16.3205 23.2797 14.8999 22.1731 13.6005 20.9197C12.7072 20.0204 12.0199 18.9264 11.5932 17.7204C10.8399 15.3604 11.7265 12.6604 14.2139 11.8464C14.4072 11.7797 14.6065 11.7331 14.8065 11.7071H14.8865C15.0739 11.6797 15.2599 11.667 15.4465 11.667H15.5199ZM21.4599 13.7737C21.1865 13.6797 20.8865 13.8271 20.7865 14.1071C20.6932 14.3871 20.8399 14.6937 21.1199 14.7931C21.5472 14.9531 21.8332 15.3737 21.8332 15.8397V15.8604C21.8205 16.0131 21.8665 16.1604 21.9599 16.2737C22.0532 16.3871 22.1932 16.4531 22.3399 16.4671C22.6132 16.4597 22.8465 16.2404 22.8665 15.9597V15.8804C22.8865 14.9464 22.3205 14.1004 21.4599 13.7737Z" fill="#E5524A"/>
</g>
<defs>
<filter id="filter0_b_51_413" x="-10" y="-10" width="56" height="56" filterUnits="userSpaceOnUse" color-interpolation-filters="sRGB">
<feFlood flood-opacity="0" result="BackgroundImageFix"/>
<feGaussianBlur in="BackgroundImageFix" stdDeviation="5"/>
<feComposite in2="SourceAlpha" operator="in" result="effect1_backgroundBlur_51_413"/>
<feBlend mode="normal" in="SourceGraphic" in2="effect1_backgroundBlur_51_413" result="shape"/>
</filter>
</defs>
</svg>
